# xmcd
#
# Track frame offsets: 
#        183
#        18875
#        42375
#        59923
#        74965
#        92208
#        108583
#        125463
#        138665
#        154045
#        170745
#        187883
#        205120
#        220173
#        234225
#
# Disc length: 3313 seconds
#
# Revision: 1
# Processed by: cddbd v1.5.2PL0 Copyright (c) Steve Scherf et al.
# Submitted via: ExactAudioCopy v0.99pb5
#
DISCID=e30cef0f
DTITLE=Various Artist - Sahnestücke '92 - Die 30 besten deutschen Stücke - CD
DTITLE=2
DYEAR=1992
DGENRE=Schlager
TTITLE0=Howard Carpendale - Mit viel, viel Herz
TTITLE1=Pe Werner - Trostpflastersteine
TTITLE2=Jürgen Drews - Faß' mich bloß nicht an
TTITLE3=Hanne Haller - Schatz, ich will ja nicht meckern...
TTITLE4=Andy Borg - Liebe total
TTITLE5=Andreas Martin - Mehr als Sehnsucht
TTITLE6=Purple Schulz - Bis ans Ende der Welt
TTITLE7=Ganz Schön Feist - Es ist gut, wenn du weißt, was du willst
TTITLE8=Hape Kerkeling - Hurz!!!
TTITLE9=Stephan Remmler - Bittebittebarbarella
TTITLE10=Udo Lindenberg - Club der Millionäre
TTITLE11=Petra Ziegler - Kußgenie
TTITLE12=Rudolf Rock und die Schocker - Klitzekleines Herz
TTITLE13=Dirk Busch - Ich zieh den Bauch nicht mehr ein
TTITLE14=Truck Stop - Du bist immer auf Achse
EXTD=YEAR: 1992
EXTT0=
EXTT1=
EXTT2=
EXTT3=
EXTT4=
EXTT5=
EXTT6=
EXTT7=
EXTT8=
EXTT9=
EXTT10=
EXTT11=
EXTT12=
EXTT13=
EXTT14=
PLAYORDER=
